  <svg xmlns="http://www.w3.org/2000/svg" width="836" height="1254" viewBox="0 0 836 1254" fill="#DFCAA4" stroke="#DFCAA4" stroke-width="3">
<g>
<path d="M 402.50 1064.28 C385.57,1061.93 364.91,1052.48 351.00,1040.75 C343.01,1034.00 330.38,1020.98 324.57,1013.50 C305.15,988.48 294.05,964.92 272.04,902.00 C245.21,825.30 229.63,789.64 216.81,775.57 C211.35,769.58 210.97,768.80 207.49,756.41 C205.49,749.31 201.16,735.10 197.87,724.83 C192.35,707.58 191.44,705.54 185.82,697.83 C169.90,676.02 163.69,655.69 140.46,549.50 C138.42,540.15 135.50,527.10 133.97,520.50 C132.44,513.90 130.44,504.48 129.53,499.56 C127.97,491.19 127.97,490.39 129.56,486.86 C131.42,482.74 136.35,479.01 143.76,476.10 L 148.50 474.24 L 149.14 464.87 C150.33,447.58 152.92,438.43 161.50,421.30 L 167.86 408.61 L 164.81 405.13 C160.20,399.88 158.68,395.46 159.46,389.54 C160.33,382.94 164.74,370.13 172.72,351.05 C184.34,323.26 188.92,316.10 198.08,311.46 C204.01,308.45 208.87,308.30 211.78,311.01 L 213.94 313.02 L 215.31 310.76 C216.07,309.52 218.56,305.26 220.85,301.31 C231.39,283.12 251.02,260.96 269.05,246.88 C293.12,228.08 320.59,214.47 353.57,204.98 L 364.65 201.80 L 364.22 196.58 C363.82,191.84 364.06,191.10 366.79,188.36 C368.45,186.71 372.37,184.37 375.51,183.17 C385.34,179.41 394.01,178.50 420.00,178.51 C440.28,178.53 445.88,178.85 452.50,180.38 C468.36,184.06 473.56,188.37 472.63,197.07 L 472.14 201.64 L 483.82 204.99 C500.96,209.90 514.73,215.20 530.50,222.95 C569.12,241.93 598.01,268.46 616.57,302.00 C619.77,307.77 622.52,312.68 622.69,312.91 C622.85,313.14 623.83,312.55 624.87,311.62 C629.94,307.03 639.56,309.45 646.42,317.04 C655.20,326.76 676.88,378.85 677.15,390.89 C677.26,396.12 674.38,402.54 670.21,406.31 C668.23,408.10 668.27,408.22 674.60,420.81 C681.69,434.90 685.73,447.62 686.55,458.38 C687.72,473.77 687.71,473.75 691.80,475.09 C699.61,477.66 707.28,484.29 708.62,489.64 C709.34,492.48 708.92,494.66 700.72,531.50 C697.41,546.35 693.92,562.55 692.97,567.50 C692.01,572.45 687.53,591.58 683.00,610.00 C678.47,628.42 674.37,645.53 673.88,648.00 C671.06,662.14 661.16,683.70 651.68,696.35 C645.88,704.08 644.54,706.74 641.10,717.35 C636.03,733.00 629.35,755.51 628.45,760.00 C627.37,765.43 623.53,772.12 619.07,776.38 C613.93,781.28 610.95,786.54 602.00,806.50 C593.57,825.31 583.58,850.39 571.54,883.00 C543.61,958.65 538.63,970.90 528.75,988.21 C518.68,1005.87 511.29,1015.71 498.50,1028.52 C478.70,1048.35 458.69,1059.40 435.12,1063.53 C427.42,1064.88 409.72,1065.29 402.50,1064.28 ZM 438.86 1052.10 C447.70,1049.75 460.62,1043.69 469.13,1037.91 C477.50,1032.23 489.89,1020.26 497.55,1010.46 C513.94,989.49 523.80,969.11 541.04,920.50 C560.58,865.41 570.87,839.28 582.39,815.50 C590.62,798.51 594.05,792.38 608.33,769.10 C616.08,756.48 620.65,746.06 623.97,733.51 C625.61,727.30 625.63,726.78 624.16,729.00 C617.82,738.53 594.01,769.30 583.80,781.16 C561.86,806.65 535.54,830.82 516.02,843.41 C493.58,857.89 469.95,868.04 449.14,872.15 L 438.24 874.30 L 437.59 879.81 C436.74,887.05 434.63,891.28 430.17,894.68 C423.19,900.01 409.65,898.80 403.79,892.32 C401.07,889.31 399.00,883.43 399.00,878.71 L 399.00 874.36 L 389.25 872.65 C366.07,868.57 337.20,855.77 313.50,839.08 C303.27,831.88 285.17,816.32 274.90,805.91 C261.53,792.36 238.07,764.34 222.50,743.33 C215.91,734.43 210.38,727.28 210.22,727.44 C209.77,727.89 218.99,753.01 221.23,757.43 C222.33,759.59 225.89,765.38 229.14,770.29 C249.22,800.62 265.10,834.76 282.51,885.00 C289.01,903.78 301.30,938.07 305.98,950.50 C328.42,1010.08 363.09,1046.45 404.66,1054.02 C412.05,1055.37 430.49,1054.33 438.86,1052.10 ZM 422.07 885.96 C423.97,884.95 424.00,881.43 424.00,665.99 L 424.00 447.05 L 421.55 445.44 C418.60,443.51 415.53,444.26 413.47,447.41 C412.17,449.39 412.02,476.49 412.24,666.92 C412.50,880.66 412.53,884.18 414.44,885.58 C416.74,887.26 419.40,887.39 422.07,885.96 ZM 398.81 856.48 L 398.50 851.69 L 390.00 849.92 C360.95,843.89 334.01,829.72 306.62,806.09 C297.00,797.79 269.92,770.15 264.30,762.89 C262.76,760.91 256.77,753.43 251.00,746.29 C225.03,714.15 209.27,691.66 200.08,673.60 C191.65,657.05 186.02,642.07 162.85,574.50 C153.96,548.57 147.84,531.72 146.91,530.64 C146.17,529.77 146.55,531.49 154.08,562.50 C162.60,597.57 174.73,640.41 180.15,654.50 C190.19,680.59 215.41,718.40 252.55,763.00 C288.51,806.20 316.30,830.19 349.50,846.72 C367.59,855.73 395.44,864.43 398.31,861.97 C398.76,861.59 398.98,859.12 398.81,856.48 ZM 455.12 858.98 C471.42,854.84 491.60,845.60 508.50,834.54 C545.48,810.34 591.98,759.19 633.57,696.96 C645.81,678.64 654.97,660.97 660.49,645.00 C664.65,632.94 679.36,578.99 683.93,559.00 C685.62,551.58 687.69,542.58 688.51,539.00 C689.33,535.42 689.99,532.05 689.96,531.50 C689.90,530.12 682.32,550.85 674.96,572.50 C648.73,649.72 642.79,664.35 627.14,690.26 C603.20,729.91 556.48,784.82 524.29,811.17 C500.80,830.39 470.06,845.50 445.09,850.12 L 438.00 851.43 L 438.00 857.09 L 438.00 862.74 L 442.37 861.93 C444.77,861.48 450.51,860.15 455.12,858.98 ZM 399.00 809.94 L 399.00 780.00 L 390.74 780.00 C369.71,780.00 345.78,784.33 314.27,793.83 C313.04,794.20 312.07,794.95 312.11,795.50 C312.33,798.66 341.06,819.02 355.50,826.24 C371.17,834.09 395.17,841.97 398.25,840.29 C398.66,840.07 399.00,826.41 399.00,809.94 ZM 446.12 839.06 C467.74,834.33 491.61,822.13 516.37,803.16 L 526.24 795.60 L 520.02 793.28 C501.02,786.17 465.77,780.08 443.25,780.02 L 438.00 780.00 L 438.00 810.57 C438.00,839.21 438.11,841.10 439.75,840.60 C440.71,840.31 443.58,839.62 446.12,839.06 ZM 312.19 784.44 C333.19,776.47 356.03,772.16 381.75,771.29 L 399.00 770.71 L 399.00 766.74 L 399.00 762.77 L 378.75 763.25 C358.06,763.74 343.25,765.79 322.92,770.99 C314.61,773.11 293.92,779.74 293.13,780.54 C292.85,780.81 294.39,782.84 296.54,785.04 C299.11,787.67 300.97,788.82 301.97,788.39 C302.81,788.03 307.41,786.26 312.19,784.44 ZM 540.76 780.33 C537.88,778.74 522.46,773.64 514.00,771.47 C494.55,766.49 476.45,763.88 457.25,763.29 L 438.00 762.70 L 438.01 766.60 L 438.02 770.50 L 452.26 770.78 C478.02,771.27 503.22,776.22 526.82,785.41 L 535.50 788.79 L 539.26 785.18 L 543.02 781.58 L 540.76 780.33 ZM 564.98 760.00 C580.39,740.64 592.29,718.42 599.81,695.00 C604.22,681.27 611.98,644.65 610.75,643.41 C609.37,642.04 598.52,667.06 593.51,683.18 C581.77,720.97 569.50,748.67 556.44,766.90 C555.10,768.77 554.00,770.75 554.00,771.30 C554.00,772.94 557.77,769.06 564.98,760.00 ZM 278.22 764.33 C267.14,747.99 254.05,717.70 243.44,683.81 C236.88,662.86 227.10,640.33 226.24,644.22 C225.79,646.29 228.09,659.03 231.99,676.04 C237.16,698.58 244.81,718.55 254.85,735.74 C262.17,748.28 280.44,771.90 281.77,770.56 C282.00,770.34 280.40,767.53 278.22,764.33 ZM 549.75 756.75 C558.68,743.27 566.88,728.07 572.25,715.00 C576.98,703.51 584.17,683.83 583.78,683.44 C583.60,683.27 580.22,687.28 576.27,692.36 C557.00,717.10 526.36,741.92 502.00,752.52 C494.17,755.93 492.76,757.00 496.10,757.00 C499.58,757.00 525.01,763.38 533.50,766.38 C537.35,767.74 540.75,768.88 541.07,768.93 C541.38,768.97 545.28,763.49 549.75,756.75 ZM 304.61 765.50 C313.61,762.47 324.38,759.59 332.50,758.03 C335.80,757.40 339.17,756.65 340.00,756.37 C340.88,756.08 336.71,753.47 329.98,750.12 C303.56,736.94 276.39,714.22 259.87,691.51 C256.92,687.45 254.17,684.10 253.77,684.06 C251.28,683.85 269.07,726.64 277.64,741.50 C283.38,751.43 295.00,768.00 296.23,768.00 C296.73,768.00 300.50,766.87 304.61,765.50 ZM 398.81 754.25 C398.51,750.58 398.39,750.48 393.50,749.70 C370.61,746.05 349.38,738.57 331.60,727.90 C314.65,717.71 304.47,709.61 288.50,693.56 C266.64,671.61 255.55,656.33 230.78,614.00 C211.80,581.58 184.79,522.65 174.97,492.26 L 170.76 479.23 L 167.13 480.22 C165.13,480.76 163.38,481.32 163.23,481.46 C162.69,481.96 172.37,510.81 177.98,525.42 C191.07,559.50 210.57,601.09 223.50,622.50 C233.81,639.57 252.09,666.52 260.43,676.93 C291.24,715.39 325.59,740.79 361.20,751.44 C372.63,754.85 387.68,757.71 395.31,757.90 C399.12,758.00 399.12,758.00 398.81,754.25 ZM 460.50 754.86 C515.52,744.43 560.92,706.03 608.69,629.50 C625.80,602.10 644.33,563.43 659.48,523.50 C665.01,508.93 673.00,484.68 673.00,482.47 C673.00,480.98 666.93,478.61 665.99,479.74 C665.64,480.16 663.20,487.25 660.56,495.50 C648.46,533.42 624.32,584.10 595.50,632.05 C553.75,701.56 501.25,741.92 442.75,749.51 L 438.00 750.12 L 438.00 754.20 L 438.00 758.28 L 443.75 757.61 C446.91,757.24 454.45,756.01 460.50,754.86 ZM 398.76 656.47 C398.91,607.51 398.64,574.24 398.09,573.69 C397.58,573.18 385.54,572.54 371.33,572.25 C313.91,571.10 286.39,576.91 267.50,594.17 C260.86,600.24 255.69,609.70 253.36,620.04 L 251.79 626.97 L 254.54 631.73 C266.77,652.91 291.52,682.15 311.00,698.41 C333.88,717.52 360.62,731.23 385.16,736.43 C391.40,737.76 396.95,738.73 397.50,738.59 C398.15,738.42 398.59,710.00 398.76,656.47 ZM 451.71 736.06 C476.21,730.83 498.47,719.84 520.47,702.12 C540.37,686.09 570.10,651.97 581.01,632.64 C583.75,627.79 584.06,626.50 583.48,622.30 C582.66,616.30 579.57,607.65 576.80,603.59 C572.67,597.53 564.41,589.81 558.50,586.49 C555.20,584.63 547.78,581.54 542.00,579.63 C524.86,573.95 514.33,572.82 473.75,572.33 L 438.00 571.89 L 438.00 654.95 L 438.00 738.00 L 440.32 738.00 C441.60,738.00 446.72,737.13 451.71,736.06 ZM 616.70 692.00 C625.97,678.14 634.25,662.50 640.54,647.00 C648.30,627.87 648.84,624.31 641.72,639.25 C639.29,644.34 632.45,657.28 626.51,668.00 C612.60,693.13 604.35,709.17 606.95,706.00 C608.09,704.62 612.47,698.33 616.70,692.00 ZM 221.54 690.25 C217.56,682.69 212.94,674.00 211.27,670.95 C206.62,662.42 196.56,642.24 193.42,635.10 C191.87,631.59 190.44,629.18 190.25,629.76 C190.05,630.34 190.63,632.54 191.53,634.66 C192.43,636.77 194.30,641.65 195.70,645.50 C198.99,654.60 207.13,671.52 212.79,681.00 C217.20,688.39 227.84,704.00 228.46,704.00 C228.63,704.00 225.52,697.81 221.54,690.25 ZM 217.01 662.04 C216.48,660.20 215.56,655.06 214.96,650.60 C213.35,638.78 210.45,631.03 195.08,597.59 C173.00,549.55 165.79,531.87 155.61,500.91 L 150.49 485.32 L 147.06 486.48 C141.45,488.37 141.27,489.57 144.76,501.79 C148.57,515.13 164.78,556.12 179.26,589.00 C187.07,606.75 216.99,666.35 217.72,665.61 C217.86,665.48 217.54,663.87 217.01,662.04 ZM 626.76 651.50 C646.32,615.07 658.28,589.23 676.28,544.50 C686.75,518.48 690.23,508.96 693.52,497.23 C695.18,491.28 695.19,490.86 693.54,489.04 C691.17,486.43 686.04,484.66 685.53,486.29 C685.32,486.95 683.69,492.67 681.90,499.00 C675.19,522.75 661.23,556.93 639.04,604.00 C634.50,613.62 629.96,623.30 628.94,625.50 C625.06,633.92 622.09,643.16 620.55,651.67 C619.67,656.53 618.68,661.85 618.37,663.50 C617.48,668.12 619.05,665.87 626.76,651.50 ZM 252.67 595.81 C258.36,587.17 265.01,581.26 274.76,576.18 C293.77,566.30 313.07,563.70 364.00,564.18 L 398.50 564.50 L 398.81 560.13 L 399.13 555.76 L 356.81 556.27 C310.47,556.83 303.69,557.47 285.00,563.02 C272.05,566.87 261.33,572.97 252.85,581.33 C246.20,587.89 238.00,600.50 238.00,604.18 C238.00,605.36 239.18,608.33 240.61,610.78 L 243.23 615.24 L 245.75 608.87 C247.14,605.37 250.25,599.49 252.67,595.81 ZM 597.02 608.96 L 599.44 603.79 L 595.97 597.27 C588.05,582.37 573.42,570.59 555.50,564.69 C534.56,557.78 517.81,556.05 471.75,556.02 L 438.00 556.00 L 438.00 560.25 L 438.00 564.50 L 479.25 564.53 C513.41,564.56 522.13,564.85 530.00,566.25 C561.03,571.75 583.24,587.12 590.52,608.14 C591.35,610.54 592.25,613.09 592.51,613.81 C593.24,615.83 594.37,614.61 597.02,608.96 ZM 244.96 573.78 C253.67,564.86 254.29,565.68 237.66,564.00 C232.24,563.45 225.38,562.71 222.41,562.36 C218.75,561.93 217.00,562.08 217.00,562.83 C217.00,563.44 220.20,570.31 224.12,578.10 L 231.24 592.26 L 234.32 586.88 C236.02,583.92 240.80,578.02 244.96,573.78 ZM 612.82 577.65 C616.77,569.76 620.00,562.98 620.00,562.57 C620.00,561.64 602.05,563.34 588.20,565.58 L 584.90 566.11 L 592.20 573.89 C596.21,578.18 600.62,583.99 602.00,586.82 C603.38,589.65 604.76,591.98 605.07,591.98 C605.39,591.99 608.87,585.54 612.82,577.65 ZM 577.69 556.56 C585.76,554.87 604.91,552.39 617.37,551.43 L 626.23 550.74 L 629.71 543.12 C634.02,533.70 645.99,504.47 647.05,500.79 C648.00,497.52 648.48,497.71 632.50,495.03 C614.63,492.02 616.32,491.47 608.80,502.77 C591.74,528.40 575.13,543.16 554.50,551.04 C551.56,552.16 551.68,552.23 559.97,554.65 C564.63,556.00 568.65,557.31 568.89,557.56 C569.55,558.21 570.23,558.13 577.69,556.56 ZM 275.40 554.89 C278.75,553.73 282.17,552.58 282.99,552.33 C283.83,552.08 281.61,550.66 277.99,549.13 C259.65,541.39 245.92,528.61 227.54,502.17 C224.36,497.59 221.16,493.62 220.45,493.34 C217.53,492.22 189.00,497.60 189.00,499.27 C189.00,500.24 199.28,524.28 206.80,540.87 L 211.50 551.25 L 218.00 551.63 C231.26,552.39 248.70,554.20 255.00,555.46 C264.50,557.36 268.58,557.25 275.40,554.89 ZM 399.00 544.50 L 399.00 541.00 L 360.25 540.92 C338.94,540.88 320.83,540.72 320.00,540.56 C319.17,540.41 315.64,539.97 312.15,539.58 C303.20,538.59 289.74,534.50 281.91,530.38 C267.48,522.80 254.71,509.37 238.05,484.25 L 228.60 470.00 L 224.30 470.00 C221.93,470.00 220.00,470.26 220.00,470.57 C220.00,471.31 234.27,492.90 239.46,500.00 C261.20,529.76 280.32,542.89 307.81,546.92 C310.94,547.38 332.74,547.81 356.25,547.88 L 399.00 548.00 L 399.00 544.50 ZM 533.07 546.40 C551.80,543.23 565.67,535.31 581.75,518.61 C592.30,507.66 617.00,474.06 617.00,470.66 C617.00,470.30 615.21,470.00 613.01,470.00 C609.40,470.00 608.78,470.40 606.40,474.25 C584.16,510.17 567.45,526.93 546.00,534.79 C532.25,539.83 528.33,540.19 481.75,540.71 L 438.00 541.19 L 438.00 544.60 L 438.00 548.00 L 480.82 548.00 C515.47,548.00 525.45,547.69 533.07,546.40 ZM 399.00 510.48 L 399.00 490.95 L 327.50 491.03 C288.17,491.06 256.00,491.44 256.00,491.85 C256.00,493.41 268.23,506.94 273.71,511.46 C287.07,522.45 299.18,527.21 318.07,528.89 C323.26,529.35 343.59,529.79 363.25,529.86 L 399.00 530.00 L 399.00 510.48 ZM 516.88 528.99 C531.81,527.83 538.79,526.07 550.00,520.66 C557.03,517.26 560.15,514.90 568.05,507.02 C573.31,501.79 578.62,496.04 579.87,494.25 L 582.14 491.00 L 510.07 491.00 L 438.00 491.00 L 438.00 510.50 L 438.00 530.00 L 471.25 529.98 C489.54,529.96 510.07,529.52 516.88,528.99 ZM 192.00 487.62 C194.48,486.88 200.55,485.68 205.50,484.97 C210.45,484.26 214.66,483.56 214.85,483.41 C215.04,483.26 213.91,480.82 212.35,477.98 L 209.50 472.81 L 203.50 473.41 C195.07,474.25 181.00,477.13 181.00,478.01 C181.00,478.42 181.61,480.27 182.35,482.13 C183.10,483.98 183.98,486.29 184.32,487.25 C185.06,489.35 186.11,489.40 192.00,487.62 ZM 654.51 482.73 C655.49,480.10 656.00,477.67 655.65,477.31 C654.90,476.57 632.61,472.12 629.27,472.05 C627.61,472.01 626.28,473.33 624.06,477.21 C622.43,480.08 621.19,482.52 621.31,482.65 C621.44,482.77 626.93,483.80 633.52,484.94 C640.11,486.07 646.85,487.39 648.50,487.87 C652.11,488.91 652.26,488.78 654.51,482.73 ZM 398.50 475.50 L 398.50 469.50 L 320.00 469.88 C276.83,470.09 241.35,470.39 241.16,470.55 C240.77,470.89 244.53,476.42 247.41,479.76 L 249.36 482.01 L 323.93 481.76 L 398.50 481.50 L 398.50 475.50 ZM 592.47 476.76 C594.41,473.88 596.00,471.02 596.00,470.40 C596.00,469.58 574.83,469.25 517.00,469.19 L 438.00 469.11 L 438.00 475.56 L 438.00 482.00 L 513.47 482.00 L 588.95 482.00 L 592.47 476.76 ZM 196.39 462.97 C215.55,459.66 234.21,459.06 319.13,459.03 L 398.75 459.00 L 399.21 453.46 C400.30,440.35 413.85,431.47 425.28,436.38 C431.82,439.18 436.98,446.64 437.02,453.32 C437.02,455.07 437.36,457.02 437.77,457.67 C438.32,458.53 462.24,458.94 531.51,459.27 C630.85,459.75 626.60,459.55 652.98,464.98 C658.75,466.16 665.83,467.93 668.73,468.91 L 674.00 470.69 L 674.00 467.98 C674.00,463.31 671.16,448.76 669.06,442.67 C665.86,433.37 658.91,419.39 649.80,403.89 C635.81,380.10 625.99,360.07 617.97,339.00 C611.17,321.12 596.86,295.79 586.17,282.71 C559.49,250.06 524.51,228.41 476.67,214.96 C468.88,212.77 460.70,210.26 458.50,209.39 C441.00,202.45 403.19,202.28 382.14,209.05 C378.64,210.18 369.99,212.64 362.92,214.52 C301.77,230.80 257.64,264.40 230.58,315.30 C228.14,319.89 222.03,333.51 217.01,345.57 C205.58,373.02 198.09,388.31 188.88,403.00 C175.72,424.02 169.22,437.06 165.96,448.98 C163.91,456.52 161.87,468.99 162.53,470.05 C162.78,470.45 167.77,469.49 173.63,467.92 C179.48,466.35 189.72,464.12 196.39,462.97 ZM 179.15 394.24 C183.70,387.10 190.66,373.17 195.26,362.00 C200.21,349.99 210.00,322.60 210.00,320.78 C210.00,319.93 209.35,318.71 208.56,318.05 C206.73,316.53 204.68,320.38 198.43,337.08 C194.13,348.59 188.40,362.86 178.60,386.50 C176.09,392.55 174.03,398.06 174.02,398.75 C173.98,401.26 175.58,399.86 179.15,394.24 ZM 663.00 399.16 C663.00,397.45 659.07,387.21 654.48,377.00 C650.42,367.94 644.47,353.20 634.30,327.00 C631.49,319.76 630.35,318.00 628.48,318.00 C626.09,318.00 625.94,321.32 628.10,326.91 C629.28,329.98 630.82,334.08 631.52,336.00 C639.60,358.41 648.65,378.62 657.16,393.25 C660.65,399.24 663.00,401.62 663.00,399.16 ZM 174.30 378.00 C191.47,335.80 197.02,321.68 196.59,321.26 C195.64,320.31 189.71,329.95 185.41,339.42 C178.70,354.21 168.25,380.91 167.03,386.37 C165.83,391.74 166.61,397.22 168.04,393.48 C168.46,392.39 171.28,385.42 174.30,378.00 ZM 669.86 387.29 C668.13,378.01 650.42,335.27 644.47,326.00 C642.21,322.48 641.50,321.91 641.19,323.37 C640.98,324.40 641.51,326.88 642.37,328.87 C647.27,340.24 664.49,382.20 666.72,388.23 C668.67,393.49 669.53,394.85 670.01,393.47 C670.37,392.44 670.30,389.66 669.86,387.29 ZM 392.00 196.41 C408.13,194.21 434.81,194.22 447.39,196.45 C457.77,198.28 462.00,197.73 462.00,194.55 C462.00,190.52 446.23,187.16 423.50,186.34 C411.29,185.90 406.04,186.19 395.28,187.87 C377.19,190.71 372.37,192.97 376.20,196.80 C377.72,198.32 378.14,198.31 392.00,196.41 Z" fill="#DFCAA4"/>
</g>
</svg>