<?xml version="1.0" encoding="iso-8859-1"?>
<!-- Generator: Adobe Illustrator 18.0.0, SVG Export Plug-In . SVG Version: 6.00 Build 0)  -->
<!DOCTYPE svg PUBLIC "-//W3C//DTD SVG 1.1//EN" "http://www.w3.org/Graphics/SVG/1.1/DTD/svg11.dtd">
<!-- License: CC0. Made by SVG Repo: https://www.svgrepo.com/svg/101949/hockey -->
<svg version="1.1" id="Capa_1" xmlns="http://www.w3.org/2000/svg" xmlns:xlink="http://www.w3.org/1999/xlink" x="0px" y="0px"
	 viewBox="0 0 512 512" style="enable-background:new 0 0 512 512;" xml:space="preserve">
<g>
	<g>
		<path style="fill:#dfcaa4;" d="M41.891,432l24,48h139.375l33.443-81.595l-11.074-27.017l-20.838,50.693
			c-2.469,6-8.313,9.918-14.797,9.918H41.891z"/>
		<path style="fill:#dfcaa4;" d="M284.318,287.126l98.955-241.435C383.75,44.508,384,43.262,384,42c0-4.809-3.852-10-10.078-10
			c-4.063,0-7.82,2.516-9.344,6.262l-91.281,222.053L284.318,287.126z"/>
  		<path style="fill:#dfcaa4;" d="M446.109,480l24-48H320c-6.484,0-12.328-3.918-14.797-9.918L147.445,38.32
			c-1.547-3.805-5.305-6.32-9.367-6.32C131.852,32,128,37.191,128,42c0,1.262,0.25,2.508,0.773,3.809L306.734,480H446.109z"/>
	</g>
	<polygon style="fill:#FFFFFF;" points="334.381,111.719 322.213,141.319 341,148.833 353.137,119.221 	"/>
	<polygon style="fill:#FFFFFF;" points="312.352,165.307 300.184,194.907 319.025,202.444 331.164,172.831 	"/>
	<path style="fill:#000000;" d="M509.609,407.59c-2.914-4.719-8.063-7.59-13.609-7.59H330.719l-29.084-70.749L412.93,57.707
		C414.969,52.621,416,47.336,416,42c0-23.16-18.875-42-42.078-42c-17.211,0-32.516,10.289-38.961,26.156L256,218.239L177.063,26.215
		C170.594,10.289,155.289,0,138.078,0C114.875,0,96,18.84,96,42c0,5.336,1.031,10.621,3.117,15.824l111.248,271.428L181.281,400H16
		c-5.547,0-10.695,2.871-13.609,7.59c-2.914,4.715-3.18,10.605-0.703,15.566l40,80C44.398,508.574,49.938,512,56,512h160
		c6.492,0,12.344-3.926,14.805-9.934L256,440.593l25.195,61.473C283.656,508.074,289.508,512,296,512h160
		c6.063,0,11.602-3.426,14.313-8.844l40-80C512.789,418.195,512.523,412.305,509.609,407.59z M364.578,38.262
		c1.523-3.746,5.281-6.262,9.344-6.262C380.148,32,384,37.191,384,42c0,1.262-0.25,2.508-0.727,3.691l-98.955,241.435
		l-11.021-26.812L364.578,38.262z M205.266,480H65.891l-24-48H192c6.484,0,12.328-3.918,14.797-9.918l20.838-50.693l11.074,27.017
		L205.266,480z M446.109,480H306.734L128.773,45.809C128.25,44.508,128,43.262,128,42c0-4.809,3.852-10,10.078-10
		c4.063,0,7.82,2.516,9.367,6.32l157.758,383.762c2.469,6,8.313,9.918,14.797,9.918h150.109L446.109,480z"/>
	<polygon style="fill:#FFFFFF;" points="199.648,165.308 180.836,172.832 192.973,202.444 211.816,194.907 	"/>
	<polygon style="fill:#FFFFFF;" points="177.617,111.719 158.863,119.221 171,148.833 189.785,141.319 	"/>
</g>
</svg>
