<?xml version="1.0" encoding="iso-8859-1"?>
<!-- Generator: Adobe Illustrator 19.0.0, SVG Export Plug-In . SVG Version: 6.00 Build 0)  -->
<!-- License: CC0. Made by SVG Repo: https://www.svgrepo.com/svg/60322/soccer-jersey -->
<svg version="1.1" id="Layer_1" xmlns="http://www.w3.org/2000/svg" xmlns:xlink="http://www.w3.org/1999/xlink" x="0px" y="0px"
	 viewBox="0 0 512 512" fill="#DFCAA4" style="enable-background:new 0 0 512 512;" xml:space="preserve">
<g>
	<g>
		<path d="M507.206,207.788L385.448,71.574c-3.424-3.832-8.566-6.283-14.043-6.283H140.592c-5.12,0-10.374,2.177-14.043,6.283
			L4.792,207.788c-6.48,7.249-6.376,18.24,0.24,25.367l66.227,71.321c7.108,7.652,19.083,8.06,26.692,0.917l23.807-22.345v144.827
			c0,10.402,8.433,18.834,18.834,18.834h230.815c10.402,0,18.834-8.433,18.834-18.834V283.049l23.807,22.345
			c7.614,7.147,19.589,6.729,26.692-0.917l66.227-71.321C513.584,226.03,513.688,215.038,507.206,207.788z M121.758,231.388
			l-35.779,33.582l-41.667-44.87l77.446-86.641V231.388z M269.617,102.961l-13.62,14.209l-13.617-14.209H269.617z M352.572,409.041
			H159.426v-18.271h193.146V409.041z M352.572,239.54v113.562H159.426V239.54V102.959h30.777l52.194,54.462
			c7.307,7.625,19.725,7.786,27.196,0.001l52.203-54.463h30.777V239.54z M426.02,264.969l-35.779-33.582v-97.929l77.446,86.641
			L426.02,264.969z"/>
	</g>
</g>
            <g transform="translate(1,-50) scale(1.2)">
	<g>
		<path d="M223.883,217.434c0.01-1.232-0.062-2.546-0.394-3.776c-0.775-2.872-3.413-5.025-6.395-5.158
			c-1.233-0.055-2.428-0.023-3.501,0.609c-1.224,0.721-2.447,1.445-3.668,2.172c-3.763,2.242-7.512,4.504-11.279,6.739
			c-0.511,0.304-1.02,0.614-1.536,0.912c-3.346,1.931-4.505,6.436-2.317,9.653c1.286,2.317,3.604,3.604,6.048,3.604
			c2.234,0,2.685-0.502,8.753-3.99v63.326c0,3.99,3.089,7.079,7.079,7.079c3.862,0,7.209-3.089,7.209-7.079c0-1.165,0-2.332,0-3.497
			c0-3.054,0-31.707,0-36.556C223.883,246.715,223.865,220.022,223.883,217.434z"/>
	</g>
</g>

</svg>
